<mxfile host="app.diagrams.net" agent="Mozilla/5.0 (Windows NT 10.0; Win64; x64) AppleWebKit/537.36 (KHTML, like Gecko) Chrome/132.0.0.0 Safari/537.36" version="26.0.14">
  <diagram name="Page-1" id="qvbksCmrkrJeN7yK2KDr">
    <mxGraphModel dx="1034" dy="446" grid="1" gridSize="10" guides="1" tooltips="1" connect="1" arrows="1" fold="1" page="1" pageScale="1" pageWidth="827" pageHeight="1169" math="0" shadow="0">
      <root>
        <mxCell id="0" />
        <mxCell id="1" parent="0" />
        <mxCell id="Mlgj9tsy6iH4SBRtYf5s-2" value="" style="verticalLabelPosition=bottom;shadow=0;dashed=0;align=center;html=1;verticalAlign=top;shape=mxgraph.electrical.logic_gates.logic_gate;operation=xor;" vertex="1" parent="1">
          <mxGeometry x="340" y="70" width="100" height="60" as="geometry" />
        </mxCell>
        <mxCell id="Mlgj9tsy6iH4SBRtYf5s-3" value="" style="verticalLabelPosition=bottom;shadow=0;dashed=0;align=center;html=1;verticalAlign=top;shape=mxgraph.electrical.logic_gates.logic_gate;operation=xor;" vertex="1" parent="1">
          <mxGeometry x="340" y="210" width="100" height="60" as="geometry" />
        </mxCell>
        <mxCell id="Mlgj9tsy6iH4SBRtYf5s-4" value="a[1]" style="text;html=1;align=center;verticalAlign=middle;resizable=0;points=[];autosize=1;strokeColor=none;fillColor=none;" vertex="1" parent="1">
          <mxGeometry x="100" y="70" width="40" height="30" as="geometry" />
        </mxCell>
        <mxCell id="Mlgj9tsy6iH4SBRtYf5s-5" value="a[0]" style="text;html=1;align=center;verticalAlign=middle;resizable=0;points=[];autosize=1;strokeColor=none;fillColor=none;" vertex="1" parent="1">
          <mxGeometry x="100" y="110" width="40" height="30" as="geometry" />
        </mxCell>
        <mxCell id="Mlgj9tsy6iH4SBRtYf5s-6" value="b[1]" style="text;html=1;align=center;verticalAlign=middle;resizable=0;points=[];autosize=1;strokeColor=none;fillColor=none;" vertex="1" parent="1">
          <mxGeometry x="100" y="170" width="40" height="30" as="geometry" />
        </mxCell>
        <mxCell id="Mlgj9tsy6iH4SBRtYf5s-7" value="b[0]" style="text;html=1;align=center;verticalAlign=middle;resizable=0;points=[];autosize=1;strokeColor=none;fillColor=none;" vertex="1" parent="1">
          <mxGeometry x="100" y="210" width="40" height="30" as="geometry" />
        </mxCell>
        <mxCell id="Mlgj9tsy6iH4SBRtYf5s-8" style="edgeStyle=orthogonalEdgeStyle;rounded=0;orthogonalLoop=1;jettySize=auto;html=1;entryX=0;entryY=0.25;entryDx=0;entryDy=0;entryPerimeter=0;" edge="1" parent="1" source="Mlgj9tsy6iH4SBRtYf5s-4" target="Mlgj9tsy6iH4SBRtYf5s-2">
          <mxGeometry relative="1" as="geometry" />
        </mxCell>
        <mxCell id="Mlgj9tsy6iH4SBRtYf5s-9" style="edgeStyle=orthogonalEdgeStyle;rounded=0;orthogonalLoop=1;jettySize=auto;html=1;entryX=0;entryY=0.75;entryDx=0;entryDy=0;entryPerimeter=0;" edge="1" parent="1" source="Mlgj9tsy6iH4SBRtYf5s-6" target="Mlgj9tsy6iH4SBRtYf5s-2">
          <mxGeometry relative="1" as="geometry" />
        </mxCell>
        <mxCell id="Mlgj9tsy6iH4SBRtYf5s-10" style="edgeStyle=orthogonalEdgeStyle;rounded=0;orthogonalLoop=1;jettySize=auto;html=1;entryX=0;entryY=0.25;entryDx=0;entryDy=0;entryPerimeter=0;" edge="1" parent="1" source="Mlgj9tsy6iH4SBRtYf5s-5" target="Mlgj9tsy6iH4SBRtYf5s-3">
          <mxGeometry relative="1" as="geometry">
            <Array as="points">
              <mxPoint x="260" y="125" />
              <mxPoint x="260" y="225" />
            </Array>
          </mxGeometry>
        </mxCell>
        <mxCell id="Mlgj9tsy6iH4SBRtYf5s-11" style="edgeStyle=orthogonalEdgeStyle;rounded=0;orthogonalLoop=1;jettySize=auto;html=1;entryX=0;entryY=0.75;entryDx=0;entryDy=0;entryPerimeter=0;" edge="1" parent="1" source="Mlgj9tsy6iH4SBRtYf5s-7" target="Mlgj9tsy6iH4SBRtYf5s-3">
          <mxGeometry relative="1" as="geometry" />
        </mxCell>
        <mxCell id="Mlgj9tsy6iH4SBRtYf5s-15" style="edgeStyle=orthogonalEdgeStyle;rounded=0;orthogonalLoop=1;jettySize=auto;html=1;exitX=1;exitY=0.5;exitDx=0;exitDy=0;exitPerimeter=0;" edge="1" parent="1" source="Mlgj9tsy6iH4SBRtYf5s-12">
          <mxGeometry relative="1" as="geometry">
            <mxPoint x="680" y="170" as="targetPoint" />
          </mxGeometry>
        </mxCell>
        <mxCell id="Mlgj9tsy6iH4SBRtYf5s-12" value="OR" style="shape=xor;whiteSpace=wrap;html=1;fillColor=#d5e8d4;strokeColor=#82b366;direction=east;" vertex="1" parent="1">
          <mxGeometry x="510" y="110" width="80" height="120" as="geometry" />
        </mxCell>
        <mxCell id="Mlgj9tsy6iH4SBRtYf5s-13" style="edgeStyle=orthogonalEdgeStyle;rounded=0;orthogonalLoop=1;jettySize=auto;html=1;exitX=1;exitY=0.5;exitDx=0;exitDy=0;exitPerimeter=0;entryX=0.175;entryY=0.25;entryDx=0;entryDy=0;entryPerimeter=0;" edge="1" parent="1" source="Mlgj9tsy6iH4SBRtYf5s-2" target="Mlgj9tsy6iH4SBRtYf5s-12">
          <mxGeometry relative="1" as="geometry" />
        </mxCell>
        <mxCell id="Mlgj9tsy6iH4SBRtYf5s-14" style="edgeStyle=orthogonalEdgeStyle;rounded=0;orthogonalLoop=1;jettySize=auto;html=1;exitX=1;exitY=0.5;exitDx=0;exitDy=0;exitPerimeter=0;entryX=0.175;entryY=0.75;entryDx=0;entryDy=0;entryPerimeter=0;" edge="1" parent="1" source="Mlgj9tsy6iH4SBRtYf5s-3" target="Mlgj9tsy6iH4SBRtYf5s-12">
          <mxGeometry relative="1" as="geometry" />
        </mxCell>
        <mxCell id="Mlgj9tsy6iH4SBRtYf5s-16" value="blue" style="text;html=1;align=center;verticalAlign=middle;resizable=0;points=[];autosize=1;strokeColor=none;fillColor=none;" vertex="1" parent="1">
          <mxGeometry x="675" y="158" width="50" height="30" as="geometry" />
        </mxCell>
        <mxCell id="Mlgj9tsy6iH4SBRtYf5s-17" value="a1^b1" style="text;html=1;align=center;verticalAlign=middle;resizable=0;points=[];autosize=1;strokeColor=none;fillColor=none;" vertex="1" parent="1">
          <mxGeometry x="360" y="85" width="60" height="30" as="geometry" />
        </mxCell>
        <mxCell id="Mlgj9tsy6iH4SBRtYf5s-18" value="a0^b0" style="text;html=1;align=center;verticalAlign=middle;resizable=0;points=[];autosize=1;strokeColor=none;fillColor=none;" vertex="1" parent="1">
          <mxGeometry x="360" y="225" width="60" height="30" as="geometry" />
        </mxCell>
      </root>
    </mxGraphModel>
  </diagram>
</mxfile>
